<svg width="22" height="22" viewBox="0 0 20 20" fill="#746b61" xmlns="http://www.w3.org/2000/svg">
            <path d="M16.125 3H3.875C3.17881 3 2.51113 3.27656 2.01884 3.76884C1.52656 4.26113 1.25 4.92881 1.25 5.625V14.375C1.25 15.0712 1.52656 15.7389 2.01884 16.2312C2.51113 16.7234 3.17881 17 3.875 17H16.125C16.8212 17 17.4889 16.7234 17.9812 16.2312C18.4734 15.7389 18.75 15.0712 18.75 14.375V5.625C18.75 4.92881 18.4734 4.26113 17.9812 3.76884C17.4889 3.27656 16.8212 3 16.125 3ZM15.5387 4.75L10 8.90625L4.46125 4.75H15.5387ZM16.125 15.25H3.875C3.64294 15.25 3.42038 15.1578 3.25628 14.9937C3.09219 14.8296 3 14.6071 3 14.375V5.84375L9.475 10.7C9.62646 10.8136 9.81068 10.875 10 10.875C10.1893 10.875 10.3735 10.8136 10.525 10.7L17 5.84375V14.375C17 14.6071 16.9078 14.8296 16.7437 14.9937C16.5796 15.1578 16.3571 15.25 16.125 15.25Z" fill="#746b6" stroke="#746b61" stroke-width="0.25"/>
          </svg>