<svg width="36" height="36" viewBox="0 0 36 36" xmlns="http://www.w3.org/2000/svg"><path d="M9.90525 17.8584C9.73778 13.2971 13.5999 9.0819 18.0136 9.02721C20.2632 8.82873 22.4517 9.73242 24.1541 11.2063C23.4558 12.0006 22.7452 12.7858 21.9863 13.5208C20.4876 12.5789 18.6831 11.8611 16.9315 12.4986C14.1064 13.3308 12.3955 16.7815 13.4409 19.6406C14.3067 22.6266 17.8177 24.2653 20.5693 23.011C21.994 22.4832 22.9334 21.1233 23.3456 19.662C21.7127 19.6283 20.0794 19.6493 18.4465 19.6027C18.4424 18.5977 18.4384 17.5964 18.4424 16.5914C21.1656 16.5872 23.8927 16.5788 26.6199 16.604C26.7874 19.0665 26.4362 21.7019 24.8887 23.6783C22.7696 26.4995 18.8546 27.3275 15.6698 26.2207C12.2897 25.0723 9.83169 21.5497 9.90525 17.8584Z" /></svg>