<svg width="36" height="36" viewBox="0 0 36 36" xmlns="http://www.w3.org/2000/svg"><path d="M28.1696 19.8573V27.2783H23.8671V20.3547C23.8671 18.6162 23.2459 17.429 21.6881 17.429C20.4993 17.429 19.793 18.2283 19.4812 19.0022C19.3679 19.2788 19.3387 19.6629 19.3387 20.0508V27.278H15.0359C15.0359 27.278 15.0936 15.5516 15.0359 14.3378H19.339V16.1715C19.3303 16.1859 19.3182 16.2001 19.3105 16.2139H19.339V16.1715C19.9108 15.2917 20.9305 14.0339 23.2167 14.0339C26.0474 14.0339 28.1696 15.8834 28.1696 19.8573ZM10.5347 8.1001C9.06292 8.1001 8.1 9.06623 8.1 10.3356C8.1 11.578 9.035 12.572 10.4783 12.572H10.5062C12.0069 12.572 12.94 11.578 12.94 10.3356C12.9114 9.06623 12.0069 8.1001 10.5347 8.1001ZM8.35573 27.2783H12.657V14.3378H8.35573V27.2783Z"/></svg>